<mxfile host="Electron" modified="2023-10-27T08:11:07.043Z" agent="Mozilla/5.0 (Windows NT 10.0; Win64; x64) AppleWebKit/537.36 (KHTML, like Gecko) draw.io/22.0.0 Chrome/114.0.5735.289 Electron/25.8.3 Safari/537.36" etag="RwqBSOk9wg5JZ-Ky9cmF" version="22.0.0" type="device">
  <diagram name="Page-1" id="X8KTWwhp_YH_pVbdW5JT">
    <mxGraphModel dx="792" dy="1187" grid="1" gridSize="10" guides="1" tooltips="1" connect="1" arrows="1" fold="1" page="1" pageScale="1" pageWidth="827" pageHeight="1169" math="0" shadow="0">
      <root>
        <mxCell id="0" />
        <mxCell id="1" parent="0" />
        <mxCell id="yOyALNuVXexgKN4nQDvY-1" value="" style="ellipse;shape=cloud;whiteSpace=wrap;html=1;sketch=1;hachureGap=4;jiggle=2;curveFitting=1;fontFamily=Architects Daughter;fontSource=https%3A%2F%2Ffonts.googleapis.com%2Fcss%3Ffamily%3DArchitects%2BDaughter;fontSize=20;fillColor=#d5e8d4;strokeColor=#82b366;" vertex="1" parent="1">
          <mxGeometry x="10" y="305" width="550" height="405" as="geometry" />
        </mxCell>
        <mxCell id="yOyALNuVXexgKN4nQDvY-3" value="Sync" style="text;html=1;align=center;verticalAlign=middle;resizable=0;points=[];autosize=1;strokeColor=none;fillColor=none;fontSize=20;fontFamily=Architects Daughter;fontStyle=1;rotation=15;" vertex="1" parent="1">
          <mxGeometry x="325" y="570" width="70" height="40" as="geometry" />
        </mxCell>
        <mxCell id="yOyALNuVXexgKN4nQDvY-4" value="Async" style="text;html=1;align=center;verticalAlign=middle;resizable=0;points=[];autosize=1;strokeColor=none;fillColor=none;fontSize=20;fontFamily=Architects Daughter;fontStyle=1;rotation=-10;" vertex="1" parent="1">
          <mxGeometry x="405" y="540" width="80" height="40" as="geometry" />
        </mxCell>
        <mxCell id="yOyALNuVXexgKN4nQDvY-5" value="Queue" style="text;html=1;align=center;verticalAlign=middle;resizable=0;points=[];autosize=1;strokeColor=none;fillColor=none;fontSize=20;fontFamily=Architects Daughter;fontStyle=1" vertex="1" parent="1">
          <mxGeometry x="339" y="520" width="80" height="40" as="geometry" />
        </mxCell>
        <mxCell id="yOyALNuVXexgKN4nQDvY-6" value="Events" style="text;html=1;align=center;verticalAlign=middle;resizable=0;points=[];autosize=1;strokeColor=none;fillColor=none;fontSize=20;fontFamily=Architects Daughter;fontStyle=1;rotation=15;" vertex="1" parent="1">
          <mxGeometry x="380" y="420" width="80" height="40" as="geometry" />
        </mxCell>
        <mxCell id="yOyALNuVXexgKN4nQDvY-7" value="Backbone" style="text;html=1;align=center;verticalAlign=middle;resizable=0;points=[];autosize=1;strokeColor=none;fillColor=none;fontSize=20;fontFamily=Architects Daughter;fontStyle=1;rotation=35;" vertex="1" parent="1">
          <mxGeometry x="255" y="400" width="120" height="40" as="geometry" />
        </mxCell>
        <mxCell id="yOyALNuVXexgKN4nQDvY-8" value="REST" style="text;html=1;align=center;verticalAlign=middle;resizable=0;points=[];autosize=1;strokeColor=none;fillColor=none;fontSize=20;fontFamily=Architects Daughter;fontStyle=1;rotation=-15;" vertex="1" parent="1">
          <mxGeometry x="155" y="430" width="70" height="40" as="geometry" />
        </mxCell>
        <mxCell id="yOyALNuVXexgKN4nQDvY-9" value="Circuit Breaker" style="text;html=1;align=center;verticalAlign=middle;resizable=0;points=[];autosize=1;strokeColor=none;fillColor=none;fontSize=20;fontFamily=Architects Daughter;fontStyle=1;rotation=20;" vertex="1" parent="1">
          <mxGeometry x="65" y="570" width="170" height="40" as="geometry" />
        </mxCell>
        <mxCell id="yOyALNuVXexgKN4nQDvY-11" value="Retry" style="text;html=1;align=center;verticalAlign=middle;resizable=0;points=[];autosize=1;strokeColor=none;fillColor=none;fontSize=20;fontFamily=Architects Daughter;fontStyle=1;rotation=-15;" vertex="1" parent="1">
          <mxGeometry x="275" y="620" width="80" height="40" as="geometry" />
        </mxCell>
        <mxCell id="yOyALNuVXexgKN4nQDvY-12" value="Commands" style="text;html=1;align=center;verticalAlign=middle;resizable=0;points=[];autosize=1;strokeColor=none;fillColor=none;fontSize=20;fontFamily=Architects Daughter;fontStyle=1;rotation=-30;" vertex="1" parent="1">
          <mxGeometry x="195" y="460" width="120" height="40" as="geometry" />
        </mxCell>
        <mxCell id="yOyALNuVXexgKN4nQDvY-13" value="RPC" style="text;html=1;align=center;verticalAlign=middle;resizable=0;points=[];autosize=1;strokeColor=none;fillColor=none;fontSize=20;fontFamily=Architects Daughter;fontStyle=1;rotation=30;" vertex="1" parent="1">
          <mxGeometry x="120" y="495" width="60" height="40" as="geometry" />
        </mxCell>
        <mxCell id="yOyALNuVXexgKN4nQDvY-15" value="HTTP" style="text;html=1;align=center;verticalAlign=middle;resizable=0;points=[];autosize=1;strokeColor=none;fillColor=none;fontSize=20;fontFamily=Architects Daughter;fontStyle=1;rotation=-15;" vertex="1" parent="1">
          <mxGeometry x="155" y="380" width="70" height="40" as="geometry" />
        </mxCell>
        <mxCell id="yOyALNuVXexgKN4nQDvY-16" value="Topic" style="text;html=1;align=center;verticalAlign=middle;resizable=0;points=[];autosize=1;strokeColor=none;fillColor=none;fontSize=20;fontFamily=Architects Daughter;fontStyle=1;rotation=-15;" vertex="1" parent="1">
          <mxGeometry x="305" y="480" width="70" height="40" as="geometry" />
        </mxCell>
        <mxCell id="yOyALNuVXexgKN4nQDvY-19" value="Bulkhead" style="text;html=1;align=center;verticalAlign=middle;resizable=0;points=[];autosize=1;strokeColor=none;fillColor=none;fontSize=20;fontFamily=Architects Daughter;fontStyle=1;rotation=-15;" vertex="1" parent="1">
          <mxGeometry x="205" y="530" width="100" height="40" as="geometry" />
        </mxCell>
        <mxCell id="yOyALNuVXexgKN4nQDvY-20" value="DLQ" style="text;html=1;align=center;verticalAlign=middle;resizable=0;points=[];autosize=1;strokeColor=none;fillColor=none;fontSize=20;fontFamily=Architects Daughter;fontStyle=1;rotation=30;" vertex="1" parent="1">
          <mxGeometry x="235" y="580" width="60" height="40" as="geometry" />
        </mxCell>
        <mxCell id="yOyALNuVXexgKN4nQDvY-21" value="Streaming" style="text;html=1;align=center;verticalAlign=middle;resizable=0;points=[];autosize=1;strokeColor=none;fillColor=none;fontSize=20;fontFamily=Architects Daughter;fontStyle=1;rotation=30;" vertex="1" parent="1">
          <mxGeometry x="365" y="470" width="120" height="40" as="geometry" />
        </mxCell>
      </root>
    </mxGraphModel>
  </diagram>
</mxfile>
